# xmcd
#
# Track frame offsets: 
#        150
#        12437
#        37975
#        50762
#        66525
#        83787
#        102075
#        113500
#        128287
#        148350
#        174475
#        187425
#        215800
#        231312
#        247225
#        271187
#        289737
#        306150
#
# Disc length: 4369 seconds
#
# Revision: 1
# Processed by: cddbd v1.5.2PL0 Copyright (c) Steve Scherf et al.
# Submitted via: ExactAudioCopy v0.99pb4
#
DISCID=16110f12
DTITLE=Various Artist - JAZZ THE BEST Premium Box DISC2 The Best Piano
DYEAR=2005
DGENRE=Jazz
TTITLE0=The Oscar Peterson Trio - Days of Wine And Roses
TTITLE1=Mccoy Tyner - Satin Doll
TTITLE2=Erroll Garner - Misty
TTITLE3=Makoto Ozone "The Trio" - We're All Alone
TTITLE4=Dave Grusin - S Wonderful
TTITLE5=The Bill Evans Trio - Love Is Here To Stay
TTITLE6=Bud Powell - Parisian Thoroughfare
TTITLE7=George Shearing - September In The Rain
TTITLE8=Junior Mance Trio - Love For Sale
TTITLE9=Ramsey Lewis Trio - The In Crowd
TTITLE10=Wynton Kelly - It's All Right
TTITLE11=Bill Evans - Autumn Leaves
TTITLE12=The Oscar Peterson Trio - C Jam Blues
TTITLE13=David Benoit - Linus and Lucy
TTITLE14=The Great Jazz Trio - Milestones
TTITLE15=Yoshiko Kishino - Danny Boy
TTITLE16=Dave Grusin - On Golden Pond
TTITLE17=Bill Evans - On A Clear Day (You Can See Forever)
EXTD=YEAR: 2005
EXTT0=
EXTT1=
EXTT2=
EXTT3=
EXTT4=
EXTT5=
EXTT6=
EXTT7=
EXTT8=
EXTT9=
EXTT10=
EXTT11=
EXTT12=
EXTT13=
EXTT14=
EXTT15=
EXTT16=
EXTT17=
PLAYORDER=
